# xmcd
#
# Track frame offsets:
# 150
# 15387
# 31369
# 46578
# 62349
# 81429
# 94387
# 111799
# 128401
# 140260
# 157736
# 175171
# 191528
# 205917
# 226240
# 242053
#
# Disc length: 3369 seconds
#
#
# Revision: 0
# Processed by: cddbd v1.5.1PL0 Copyright (c) Steve Scherf et al.
# Submitted via: FreeRIP 2.942 
#
DISCID=be0d2710
DTITLE=Aléx Silveira - Poncho y Pampa
DYEAR=1900
DGENRE=Gaúcha
TTITLE0=Moura Negra
TTITLE1=Poncho y Pampa
TTITLE2=Estampa Domingueira
TTITLE3=Ainda existem essas tropas
TTITLE4=Se as estâncias terminarem
TTITLE5=Versos de campo
TTITLE6=O Silêncio
TTITLE7=Meu verso a Nilson Souza
TTITLE8=De campo e cidade
TTITLE9=Paisagem de primeira
TTITLE10=Da simplicidade do meu verso
TTITLE11=Um retrato do Berega
TTITLE12=Pra se falar de cavalo
TTITLE13=De terra, campo e galpão
TTITLE14=Tempo de seca
TTITLE15=Oração do Ginete
EXTD=
EXTT0=
EXTT1=
EXTT2=
EXTT3=
EXTT4=
EXTT5=
EXTT6=
EXTT7=
EXTT8=
EXTT9=
EXTT10=
EXTT11=
EXTT12=
EXTT13=
EXTT14=
EXTT15=
PLAYORDER=
